<svg width="286" height="51" viewBox="0 0 286 51" fill="none" xmlns="http://www.w3.org/2000/svg">
<g clip-path="url(#clip0_2691_2780)">
<path d="M51.9397 17.1657C50.3308 20.0731 48.717 22.9779 47.1156 25.8905C42.6092 34.079 38.1028 42.2675 33.609 50.4639C33.4063 50.8319 33.1961 50.9739 32.7833 50.9739C27.829 50.9581 22.8772 50.966 17.923 50.9581C17.7428 50.9581 17.4326 51.1526 17.385 50.7373C17.5351 50.5033 17.6953 50.2746 17.8304 50.0328C20.4101 45.3457 22.9923 40.6587 25.562 35.9664C25.9224 35.3092 26.3702 34.6994 26.5879 33.9607C27.221 33.1169 27.6538 32.1443 28.1618 31.2216C33.7741 21.0326 39.3789 10.841 44.9712 0.641547C45.2089 0.207807 45.4567 0.0421968 45.9446 0.0448255C50.8538 0.0658554 55.7655 0.0527117 60.6747 0.0684841C60.8449 0.0684841 61.2227 -0.189131 61.2127 0.320842C59.9867 2.52635 58.7531 4.72922 57.5345 6.93999C55.6629 10.3442 53.8013 13.7589 51.9347 17.1657H51.9397Z" fill="#D29F53"/>
<path d="M1.02838 32.7831C0.349467 32.7814 0.0100086 32.4204 0.0100086 31.7001C0.0100086 27.4179 0.0175151 23.1331 0 18.8509C0 18.3724 0.112597 18.2226 0.583001 18.1989C9.91603 17.7284 16.8945 10.389 17.3024 0.617985C17.3224 0.142185 17.48 0.0449219 17.8929 0.0449219C22.1165 0.0580655 26.3427 0.0606943 30.5663 0.0449219C31.0567 0.0449219 31.2043 0.176358 31.1893 0.707362C30.9041 10.1524 27.4336 18.057 20.8204 24.4501C20.4251 24.8312 19.9622 25.1362 19.6394 25.5962C19.4442 25.7171 19.234 25.817 19.0564 25.9642C15.7886 28.6429 12.1379 30.5198 8.14701 31.6633C5.82 32.331 3.44046 32.6938 1.02838 32.7858V32.7831Z" fill="#D29F53"/>
<path d="M78.0769 18.2487C78.192 18.254 78.3071 18.2592 78.4247 18.2671C78.6448 18.4538 78.5473 18.714 78.5473 18.9401C78.5548 23.3301 78.5423 27.7227 78.5648 32.1126C78.5673 32.6673 78.3971 32.7909 77.9017 32.8171C69.5095 33.2614 62.9413 39.3364 61.4701 47.9954C61.33 48.813 61.2474 49.641 61.2599 50.4717C61.2649 50.8292 61.1598 50.9712 60.797 50.9685C56.4908 50.958 52.1846 50.9528 47.8784 50.9712C47.3504 50.9712 47.3855 50.6741 47.393 50.3061C47.5256 43.9156 49.2821 38.0588 52.6525 32.7383C54.3114 30.1201 56.3106 27.8173 58.6026 25.7984C58.7277 25.688 58.8929 25.6171 58.9204 25.4173C59.5259 25.1544 59.9763 24.6523 60.5017 24.2633C63.737 21.8685 67.2626 20.1677 71.1109 19.174C73.4028 18.5826 75.7223 18.275 78.0819 18.2461L78.0769 18.2487Z" fill="#D29F53"/>
<path d="M1.02905 32.7833C3.44363 32.6913 5.82067 32.3286 8.14767 31.6609C12.1386 30.5174 15.7892 28.6378 19.0571 25.9618C19.2347 25.8172 19.4449 25.7173 19.6401 25.5938C20.9086 26.4875 21.9445 27.6547 22.9804 28.8113C24.234 30.2124 25.3375 31.7424 26.3183 33.3695C26.4284 33.5509 26.4985 33.7586 26.5885 33.9557C26.3708 34.6944 25.923 35.3043 25.5626 35.9615C22.9929 40.6537 20.4107 45.3408 17.831 50.0278C17.6959 50.2723 17.5357 50.4983 17.3856 50.7323C17.2455 49.4784 17.2205 48.2087 16.9102 46.9811C14.9836 39.3157 10.3095 34.6813 2.93819 33.0357C2.31266 32.8964 1.6646 32.8648 1.02905 32.7833Z" fill="#E4D1B2"/>
<path d="M78.0764 18.2489C75.7194 18.2752 73.3999 18.5828 71.1054 19.1769C67.2596 20.1705 63.7316 21.8713 60.4963 24.2661C59.9734 24.6551 59.5205 25.1572 58.915 25.4201C57.211 24.1163 55.7973 22.4996 54.4461 20.8172C53.5228 19.6684 52.7346 18.4119 51.939 17.1659C53.8056 13.7564 55.6647 10.3443 57.5388 6.9375C58.7548 4.72411 59.9884 2.52386 61.2169 0.318359C61.3095 2.89714 61.7599 5.3997 62.8634 7.71824C65.8985 14.0955 70.7927 17.6233 77.5885 18.1858C77.7512 18.199 77.9163 18.2253 78.0789 18.2463L78.0764 18.2489Z" fill="#E4D1B2"/>
</g>
<path d="M99.0875 16.1656L94.6816 16.3202L93.48 23.0583H90.8918L91.4156 14.1256H111.289L111.658 23.0583H109.224L108.023 16.3202L103.678 16.1656V34.9274L107.992 35.2365V37.0911H95.1437V35.2365L99.0875 34.9274V16.1656Z" fill="white"/>
<path d="M115.168 14.4965L112.826 14.0947V12.4256L118.557 11.7456H118.65L119.451 12.3329L119.482 19.2256L119.266 21.9147C119.903 21.3377 120.765 20.802 121.854 20.3074C122.963 19.8129 124.124 19.5656 125.336 19.5656C126.63 19.5656 127.636 19.8129 128.355 20.3074C129.074 20.7814 129.577 21.5129 129.865 22.502C130.152 23.4911 130.296 24.8098 130.296 26.4583V34.9583L132.268 35.2365V37.0911H124.165V35.2365L125.952 34.9583V26.4583C125.952 25.3868 125.88 24.5523 125.736 23.9547C125.592 23.3571 125.325 22.9141 124.935 22.6256C124.565 22.3371 124.011 22.1929 123.271 22.1929C122.635 22.1929 121.977 22.3474 121.299 22.6565C120.642 22.945 120.057 23.2953 119.543 23.7074V34.9583L121.423 35.2365V37.0911H113.443V35.2365L115.168 34.9892V14.4965Z" fill="white"/>
<path d="M142.125 37.4311C139.414 37.4311 137.391 36.6377 136.055 35.0511C134.741 33.4438 134.084 31.2595 134.084 28.4983C134.084 26.6438 134.422 25.0365 135.1 23.6765C135.799 22.3165 136.774 21.2759 138.027 20.5547C139.28 19.8335 140.728 19.4729 142.372 19.4729C144.426 19.4729 146.007 20.0189 147.117 21.1111C148.226 22.1826 148.801 23.7177 148.842 25.7165C148.842 27.0765 148.76 28.0862 148.595 28.7456H138.582C138.664 30.6208 139.106 32.0838 139.907 33.1347C140.708 34.165 141.848 34.6802 143.327 34.6802C144.128 34.6802 144.949 34.5462 145.792 34.2783C146.654 34.0105 147.332 33.6911 147.825 33.3202L148.595 35.0202C148.041 35.6177 147.137 36.1741 145.884 36.6892C144.652 37.1838 143.399 37.4311 142.125 37.4311ZM144.528 26.8911C144.569 26.3141 144.59 25.8711 144.59 25.562C144.59 22.8214 143.676 21.4511 141.848 21.4511C140.841 21.4511 140.061 21.8529 139.506 22.6565C138.952 23.4602 138.644 24.8717 138.582 26.8911H144.528Z" fill="white"/>
<path d="M156.671 14.1256H165.914V16.042L163.234 16.4438L167.116 30.3838L167.825 33.8147L168.533 30.3838L171.83 19.0711L170.967 16.4438L168.934 16.042V14.1256H178.578V16.042L175.62 16.4438L179.471 30.3838L180.303 34.0929L180.95 30.3838L184.463 16.4438L181.69 16.042V14.1256H189.115V16.042L187.143 16.4438L181.289 37.2456H177.222L172.97 22.8111L168.903 37.2456H164.898L158.551 16.4747L156.671 16.042V14.1256Z" fill="white"/>
<path d="M197.699 37.4311C194.988 37.4311 192.964 36.6377 191.629 35.0511C190.315 33.4438 189.657 31.2595 189.657 28.4983C189.657 26.6438 189.996 25.0365 190.674 23.6765C191.372 22.3165 192.348 21.2759 193.601 20.5547C194.854 19.8335 196.302 19.4729 197.945 19.4729C200 19.4729 201.581 20.0189 202.69 21.1111C203.8 22.1826 204.375 23.7177 204.416 25.7165C204.416 27.0765 204.334 28.0862 204.169 28.7456H194.156C194.238 30.6208 194.68 32.0838 195.481 33.1347C196.282 34.165 197.422 34.6802 198.901 34.6802C199.702 34.6802 200.523 34.5462 201.365 34.2783C202.228 34.0105 202.906 33.6911 203.399 33.3202L204.169 35.0202C203.615 35.6177 202.711 36.1741 201.458 36.6892C200.225 37.1838 198.972 37.4311 197.699 37.4311ZM200.102 26.8911C200.143 26.3141 200.164 25.8711 200.164 25.562C200.164 22.8214 199.25 21.4511 197.422 21.4511C196.415 21.4511 195.635 21.8529 195.08 22.6565C194.525 23.4602 194.217 24.8717 194.156 26.8911H200.102Z" fill="white"/>
<path d="M205.488 12.4256L211.126 11.7456H211.188L212.051 12.3329V21.4511C212.605 20.8947 213.283 20.4311 214.084 20.0602C214.906 19.6686 215.789 19.4729 216.734 19.4729C218.706 19.4729 220.308 20.1735 221.541 21.5747C222.793 22.9553 223.42 25.0777 223.42 27.942C223.42 29.7141 223.05 31.3214 222.311 32.7638C221.571 34.2062 220.503 35.3498 219.106 36.1947C217.73 37.0189 216.128 37.4311 214.3 37.4311C212.677 37.4311 211.27 37.2971 210.079 37.0292C208.888 36.7408 208.128 36.4832 207.799 36.2565V14.4038L205.488 14.0329V12.4256ZM215.101 22.1929C214.485 22.1929 213.899 22.3371 213.345 22.6256C212.811 22.8935 212.379 23.2026 212.051 23.5529V34.8347C212.174 35.0614 212.462 35.2468 212.913 35.3911C213.365 35.5353 213.879 35.6074 214.454 35.6074C215.769 35.6074 216.816 34.9995 217.597 33.7838C218.398 32.5474 218.798 30.7238 218.798 28.3129C218.798 26.2317 218.459 24.6965 217.782 23.7074C217.104 22.6977 216.21 22.1929 215.101 22.1929Z" fill="white"/>
<path d="M229.31 22.1311L228.601 25.1602H226.383V19.9056H239.97L240.679 21.5129L232.483 32.9183L230.327 35.1438L237.228 34.8038L238.707 31.2492L240.802 31.4965L240.309 37.0911H226.013L225.243 35.3911L233.654 24.2329L235.873 21.9147L229.31 22.1311Z" fill="white"/>
<path d="M248.278 37.3692C246.984 37.3692 246.028 37.0705 245.412 36.4729C244.796 35.8753 244.488 34.9274 244.488 33.6292V22.2856H242.485V20.6783C242.649 20.6165 242.947 20.5135 243.379 20.3692C243.81 20.2044 244.139 20.0705 244.365 19.9674C244.714 19.6995 245.012 19.2359 245.258 18.5765C245.443 18.1438 245.782 17.0723 246.275 15.362H248.74L248.863 19.9056H253.577V22.2856H248.894V30.9711C248.894 32.125 248.925 32.9389 248.986 33.4129C249.048 33.8868 249.181 34.1959 249.387 34.3402C249.592 34.4638 249.952 34.5256 250.465 34.5256C250.979 34.5256 251.513 34.4741 252.067 34.3711C252.622 34.2474 253.084 34.1032 253.454 33.9383L254.039 35.6692C253.464 36.102 252.622 36.4935 251.513 36.8438C250.404 37.1941 249.325 37.3692 248.278 37.3692Z" fill="white"/>
<path d="M263.443 37.4311C260.731 37.4311 258.708 36.6377 257.373 35.0511C256.058 33.4438 255.401 31.2595 255.401 28.4983C255.401 26.6438 255.74 25.0365 256.418 23.6765C257.116 22.3165 258.092 21.2759 259.345 20.5547C260.598 19.8335 262.046 19.4729 263.689 19.4729C265.743 19.4729 267.325 20.0189 268.434 21.1111C269.543 22.1826 270.118 23.7177 270.16 25.7165C270.16 27.0765 270.077 28.0862 269.913 28.7456H259.899C259.982 30.6208 260.423 32.0838 261.224 33.1347C262.025 34.165 263.165 34.6802 264.644 34.6802C265.445 34.6802 266.267 34.5462 267.109 34.2783C267.972 34.0105 268.65 33.6911 269.143 33.3202L269.913 35.0202C269.358 35.6177 268.455 36.1741 267.202 36.6892C265.969 37.1838 264.716 37.4311 263.443 37.4311ZM265.846 26.8911C265.887 26.3141 265.908 25.8711 265.908 25.562C265.908 22.8214 264.994 21.4511 263.165 21.4511C262.159 21.4511 261.378 21.8529 260.824 22.6565C260.269 23.4602 259.961 24.8717 259.899 26.8911H265.846Z" fill="white"/>
<path d="M272.618 35.2674L274.652 35.0202V22.842L272.68 22.2856V20.1529L277.456 19.5038H277.548L278.318 20.122V20.802L278.226 23.3056H278.318C278.462 22.8935 278.801 22.3886 279.335 21.7911C279.869 21.1729 280.537 20.6371 281.338 20.1838C282.159 19.7098 283.043 19.4729 283.988 19.4729C284.439 19.4729 284.83 19.5347 285.158 19.6583V24.2947C284.542 23.862 283.792 23.6456 282.909 23.6456C281.41 23.6456 280.105 24.0474 278.996 24.8511V34.9892L282.57 35.2674V37.0911H272.618V35.2674Z" fill="white"/>
<defs>
<clipPath id="clip0_2691_2780">
<rect width="78.5676" height="51" fill="white"/>
</clipPath>
</defs>
</svg>
