<svg width="186" height="34" viewBox="0 0 186 34" fill="none" xmlns="http://www.w3.org/2000/svg">
<g clip-path="url(#clip0_2691_1539)">
<path d="M33.7152 11.607C32.6709 13.4882 31.6233 15.3678 30.5838 17.2524C27.6586 22.5509 24.7334 27.8493 21.8163 33.1528C21.6848 33.391 21.5483 33.4828 21.2803 33.4828C18.0644 33.4726 14.8501 33.4777 11.6342 33.4726C11.5172 33.4726 11.3158 33.5985 11.285 33.3297C11.3824 33.1784 11.4864 33.0304 11.5741 32.8739C13.2486 29.8411 14.9248 26.8083 16.5929 23.7721C16.8268 23.3469 17.1175 22.9523 17.2588 22.4743C17.6697 21.9283 17.9507 21.299 18.2804 20.7019C21.9235 14.1091 25.5617 7.51452 29.1918 0.91486C29.3461 0.634205 29.5069 0.527045 29.8236 0.528746C33.0103 0.542354 36.1986 0.533849 39.3853 0.544055C39.4958 0.544055 39.741 0.377362 39.7345 0.707345C38.9387 2.13444 38.1379 3.55983 37.3469 4.99032C36.132 7.19304 34.9236 9.40257 33.712 11.607H33.7152Z" fill="#D29F53"/>
<path d="M0.667548 21.7124C0.226847 21.7112 0.00649681 21.4776 0.00649681 21.0116C0.00649681 18.2407 0.0113694 15.4682 0 12.6974C0 12.3878 0.0730892 12.2908 0.378439 12.2755C6.43672 11.9711 10.9666 7.22202 11.2314 0.899614C11.2444 0.591743 11.3467 0.528809 11.6147 0.528809C14.3563 0.537313 17.0996 0.539014 19.8413 0.528809C20.1596 0.528809 20.2554 0.613856 20.2457 0.957446C20.0605 7.06894 17.8078 12.1837 13.515 16.3204C13.2584 16.567 12.9579 16.7643 12.7484 17.062C12.6217 17.1402 12.4853 17.2049 12.3699 17.3001C10.2487 19.0334 7.87901 20.2478 5.28841 20.9878C3.7779 21.4198 2.23328 21.6545 0.667548 21.7141V21.7124Z" fill="#D29F53"/>
<path d="M50.6815 12.3079C50.7562 12.3113 50.8309 12.3147 50.9073 12.3198C51.0502 12.4405 50.9868 12.6089 50.9868 12.7552C50.9917 15.5958 50.9836 18.4381 50.9982 21.2786C50.9998 21.6375 50.8894 21.7175 50.5678 21.7345C45.1202 22.0219 40.8567 25.9528 39.9016 31.5557C39.8107 32.0847 39.7571 32.6205 39.7652 33.158C39.7685 33.3893 39.7002 33.4812 39.4647 33.4795C36.6695 33.4727 33.8742 33.4693 31.079 33.4812C30.7363 33.4812 30.759 33.289 30.7639 33.0509C30.85 28.9159 31.9901 25.1262 34.1779 21.6835C35.2548 19.9893 36.5525 18.4993 38.0403 17.193C38.1215 17.1215 38.2287 17.0756 38.2466 16.9463C38.6396 16.7762 38.932 16.4514 39.2731 16.1996C41.3732 14.6501 43.6617 13.5495 46.1597 12.9066C47.6475 12.5239 49.1531 12.3249 50.6847 12.3062L50.6815 12.3079Z" fill="#D29F53"/>
<path d="M0.667969 21.7126C2.23533 21.6531 3.77832 21.4184 5.28883 20.9863C7.87943 20.2464 10.2491 19.0302 12.3704 17.2987C12.4857 17.2051 12.6221 17.1405 12.7488 17.0605C13.5723 17.6389 14.2447 18.3941 14.9171 19.1425C15.7308 20.0491 16.4471 21.0391 17.0838 22.0919C17.1553 22.2093 17.2007 22.3437 17.2592 22.4712C17.1179 22.9492 16.8272 23.3438 16.5933 23.7691C14.9252 26.8053 13.2491 29.838 11.5745 32.8708C11.4868 33.029 11.3828 33.1753 11.2854 33.3267C11.1944 32.5153 11.1782 31.6938 10.9768 30.8994C9.72615 25.9395 6.69214 22.9407 1.90724 21.8759C1.50119 21.7858 1.08052 21.7654 0.667969 21.7126Z" fill="#E4D1B2"/>
<path d="M50.6813 12.3082C49.1513 12.3252 47.6456 12.5242 46.1562 12.9086C43.6598 13.5516 41.3697 14.6521 39.2696 16.2016C38.9302 16.4534 38.6362 16.7783 38.2431 16.9484C37.137 16.1047 36.2194 15.0586 35.3423 13.97C34.743 13.2267 34.2313 12.4136 33.7148 11.6074C34.9265 9.40128 36.1333 7.19345 37.3498 4.98903C38.1392 3.55684 38.9399 2.13315 39.7374 0.706055C39.7975 2.37468 40.0898 3.99398 40.8061 5.49421C42.7763 9.6207 45.9532 11.9034 50.3646 12.2674C50.4701 12.2759 50.5773 12.2929 50.6829 12.3065L50.6813 12.3082Z" fill="#E4D1B2"/>
</g>
<path d="M64.32 10.9601L61.46 11.0601L60.68 15.4201H59L59.34 9.6401H72.24L72.48 15.4201H70.9L70.12 11.0601L67.3 10.9601V23.1001L70.1 23.3001V24.5001H61.76V23.3001L64.32 23.1001V10.9601Z" fill="#111111"/>
<path d="M74.7583 9.8801L73.2383 9.6201V8.5401L76.9583 8.1001H77.0183L77.5383 8.4801L77.5583 12.9401L77.4183 14.6801C77.8316 14.3068 78.3916 13.9601 79.0983 13.6401C79.8183 13.3201 80.5716 13.1601 81.3583 13.1601C82.1983 13.1601 82.8516 13.3201 83.3183 13.6401C83.7849 13.9468 84.1116 14.4201 84.2983 15.0601C84.4849 15.7001 84.5783 16.5534 84.5783 17.6201V23.1201L85.8583 23.3001V24.5001H80.5983V23.3001L81.7583 23.1201V17.6201C81.7583 16.9268 81.7116 16.3868 81.6183 16.0001C81.5249 15.6134 81.3516 15.3268 81.0983 15.1401C80.8583 14.9534 80.4983 14.8601 80.0183 14.8601C79.6049 14.8601 79.1783 14.9601 78.7383 15.1601C78.3116 15.3468 77.9316 15.5734 77.5983 15.8401V23.1201L78.8183 23.3001V24.5001H73.6383V23.3001L74.7583 23.1401V9.8801Z" fill="#111111"/>
<path d="M92.2567 24.7201C90.4967 24.7201 89.1834 24.2068 88.3167 23.1801C87.4634 22.1401 87.0367 20.7268 87.0367 18.9401C87.0367 17.7401 87.2567 16.7001 87.6967 15.8201C88.1501 14.9401 88.7834 14.2668 89.5967 13.8001C90.4101 13.3334 91.3501 13.1001 92.4167 13.1001C93.75 13.1001 94.7767 13.4534 95.4967 14.1601C96.2167 14.8534 96.59 15.8468 96.6167 17.1401C96.6167 18.0201 96.5634 18.6734 96.4567 19.1001H89.9567C90.0101 20.3134 90.2967 21.2601 90.8167 21.9401C91.3367 22.6068 92.0767 22.9401 93.0367 22.9401C93.5567 22.9401 94.0901 22.8534 94.6367 22.6801C95.1967 22.5068 95.6367 22.3001 95.9567 22.0601L96.4567 23.1601C96.0967 23.5468 95.5101 23.9068 94.6967 24.2401C93.8967 24.5601 93.0834 24.7201 92.2567 24.7201ZM93.8167 17.9001C93.8434 17.5268 93.8567 17.2401 93.8567 17.0401C93.8567 15.2668 93.2634 14.3801 92.0767 14.3801C91.4234 14.3801 90.9167 14.6401 90.5567 15.1601C90.1967 15.6801 89.9967 16.5934 89.9567 17.9001H93.8167Z" fill="#111111"/>
<path d="M101.699 9.6401H107.699V10.8801L105.959 11.1401L108.479 20.1601L108.939 22.3801L109.399 20.1601L111.539 12.8401L110.979 11.1401L109.659 10.8801V9.6401H115.919V10.8801L113.999 11.1401L116.499 20.1601L117.039 22.5601L117.459 20.1601L119.739 11.1401L117.939 10.8801V9.6401H122.759V10.8801L121.479 11.1401L117.679 24.6001H115.039L112.279 15.2601L109.639 24.6001H107.039L102.919 11.1601L101.699 10.8801V9.6401Z" fill="#111111"/>
<path d="M128.331 24.7201C126.571 24.7201 125.258 24.2068 124.391 23.1801C123.538 22.1401 123.111 20.7268 123.111 18.9401C123.111 17.7401 123.331 16.7001 123.771 15.8201C124.224 14.9401 124.858 14.2668 125.671 13.8001C126.484 13.3334 127.424 13.1001 128.491 13.1001C129.824 13.1001 130.851 13.4534 131.571 14.1601C132.291 14.8534 132.664 15.8468 132.691 17.1401C132.691 18.0201 132.638 18.6734 132.531 19.1001H126.031C126.084 20.3134 126.371 21.2601 126.891 21.9401C127.411 22.6068 128.151 22.9401 129.111 22.9401C129.631 22.9401 130.164 22.8534 130.711 22.6801C131.271 22.5068 131.711 22.3001 132.031 22.0601L132.531 23.1601C132.171 23.5468 131.584 23.9068 130.771 24.2401C129.971 24.5601 129.158 24.7201 128.331 24.7201ZM129.891 17.9001C129.918 17.5268 129.931 17.2401 129.931 17.0401C129.931 15.2668 129.338 14.3801 128.151 14.3801C127.498 14.3801 126.991 14.6401 126.631 15.1601C126.271 15.6801 126.071 16.5934 126.031 17.9001H129.891Z" fill="#111111"/>
<path d="M133.387 8.5401L137.047 8.1001H137.087L137.647 8.4801V14.3801C138.007 14.0201 138.447 13.7201 138.967 13.4801C139.5 13.2268 140.074 13.1001 140.687 13.1001C141.967 13.1001 143.007 13.5534 143.807 14.4601C144.62 15.3534 145.027 16.7268 145.027 18.5801C145.027 19.7268 144.787 20.7668 144.307 21.7001C143.827 22.6334 143.134 23.3734 142.227 23.9201C141.334 24.4534 140.294 24.7201 139.107 24.7201C138.054 24.7201 137.14 24.6334 136.367 24.4601C135.594 24.2734 135.1 24.1068 134.887 23.9601V9.8201L133.387 9.5801V8.5401ZM139.627 14.8601C139.227 14.8601 138.847 14.9534 138.487 15.1401C138.14 15.3134 137.86 15.5134 137.647 15.7401V23.0401C137.727 23.1868 137.914 23.3068 138.207 23.4001C138.5 23.4934 138.834 23.5401 139.207 23.5401C140.06 23.5401 140.74 23.1468 141.247 22.3601C141.767 21.5601 142.027 20.3801 142.027 18.8201C142.027 17.4734 141.807 16.4801 141.367 15.8401C140.927 15.1868 140.347 14.8601 139.627 14.8601Z" fill="#111111"/>
<path d="M148.85 14.8201L148.39 16.7801H146.95V13.3801H155.77L156.23 14.4201L150.91 21.8001L149.51 23.2401L153.99 23.0201L154.95 20.7201L156.31 20.8801L155.99 24.5001H146.71L146.21 23.4001L151.67 16.1801L153.11 14.6801L148.85 14.8201Z" fill="#111111"/>
<path d="M161.163 24.6801C160.323 24.6801 159.703 24.4868 159.303 24.1001C158.903 23.7134 158.703 23.1001 158.703 22.2601V14.9201H157.403V13.8801C157.509 13.8401 157.703 13.7734 157.983 13.6801C158.263 13.5734 158.476 13.4868 158.623 13.4201C158.849 13.2468 159.043 12.9468 159.203 12.5201C159.323 12.2401 159.543 11.5468 159.863 10.4401H161.463L161.543 13.3801H164.603V14.9201H161.563V20.5401C161.563 21.2868 161.583 21.8134 161.623 22.1201C161.663 22.4268 161.749 22.6268 161.883 22.7201C162.016 22.8001 162.249 22.8401 162.583 22.8401C162.916 22.8401 163.263 22.8068 163.623 22.7401C163.983 22.6601 164.283 22.5668 164.523 22.4601L164.903 23.5801C164.529 23.8601 163.983 24.1134 163.263 24.3401C162.543 24.5668 161.843 24.6801 161.163 24.6801Z" fill="#111111"/>
<path d="M171.007 24.7201C169.247 24.7201 167.933 24.2068 167.067 23.1801C166.213 22.1401 165.787 20.7268 165.787 18.9401C165.787 17.7401 166.007 16.7001 166.447 15.8201C166.9 14.9401 167.533 14.2668 168.347 13.8001C169.16 13.3334 170.1 13.1001 171.167 13.1001C172.5 13.1001 173.527 13.4534 174.247 14.1601C174.967 14.8534 175.34 15.8468 175.367 17.1401C175.367 18.0201 175.313 18.6734 175.207 19.1001H168.707C168.76 20.3134 169.047 21.2601 169.567 21.9401C170.087 22.6068 170.827 22.9401 171.787 22.9401C172.307 22.9401 172.84 22.8534 173.387 22.6801C173.947 22.5068 174.387 22.3001 174.707 22.0601L175.207 23.1601C174.847 23.5468 174.26 23.9068 173.447 24.2401C172.647 24.5601 171.833 24.7201 171.007 24.7201ZM172.567 17.9001C172.593 17.5268 172.607 17.2401 172.607 17.0401C172.607 15.2668 172.013 14.3801 170.827 14.3801C170.173 14.3801 169.667 14.6401 169.307 15.1601C168.947 15.6801 168.747 16.5934 168.707 17.9001H172.567Z" fill="#111111"/>
<path d="M176.963 23.3201L178.283 23.1601V15.2801L177.003 14.9201V13.5401L180.103 13.1201H180.163L180.663 13.5201V13.9601L180.603 15.5801H180.663C180.756 15.3134 180.976 14.9868 181.323 14.6001C181.669 14.2001 182.103 13.8534 182.623 13.5601C183.156 13.2534 183.729 13.1001 184.343 13.1001C184.636 13.1001 184.889 13.1401 185.103 13.2201V16.2201C184.703 15.9401 184.216 15.8001 183.643 15.8001C182.669 15.8001 181.823 16.0601 181.103 16.5801V23.1401L183.423 23.3201V24.5001H176.963V23.3201Z" fill="#111111"/>
<defs>
<clipPath id="clip0_2691_1539">
<rect width="51" height="33" fill="white" transform="translate(0 0.5)"/>
</clipPath>
</defs>
</svg>
