<svg width="186" height="33" viewBox="0 0 186 33" fill="none" xmlns="http://www.w3.org/2000/svg">
<g clip-path="url(#clip0_2688_112)">
<path d="M33.7152 11.107C32.6708 12.9882 31.6232 14.8678 30.5837 16.7524C27.6585 22.0509 24.7333 27.3493 21.8163 32.6528C21.6847 32.891 21.5483 32.9828 21.2803 32.9828C18.0643 32.9726 14.85 32.9777 11.6341 32.9726C11.5172 32.9726 11.3158 33.0985 11.2849 32.8297C11.3824 32.6784 11.4863 32.5304 11.574 32.3739C13.2486 29.3411 14.9248 26.3083 16.5928 23.2721C16.8267 22.8469 17.1174 22.4523 17.2587 21.9743C17.6697 21.4283 17.9506 20.799 18.2804 20.2019C21.9234 13.6091 25.5617 7.01452 29.1918 0.41486C29.3461 0.134205 29.5069 0.0270453 29.8236 0.0287463C33.0103 0.0423538 36.1986 0.0338491 39.3853 0.0440547C39.4957 0.0440547 39.741 -0.122638 39.7345 0.207345C38.9386 1.63444 38.1379 3.05983 37.3469 4.49032C36.132 6.69304 34.9236 8.90257 33.7119 11.107H33.7152Z" fill="#D29F53"/>
<path d="M0.667548 21.2124C0.226847 21.2112 0.00649681 20.9776 0.00649681 20.5116C0.00649681 17.7407 0.0113694 14.9682 0 12.1974C0 11.8878 0.0730892 11.7908 0.378439 11.7755C6.43672 11.4711 10.9666 6.72202 11.2314 0.399614C11.2444 0.0917435 11.3467 0.0288086 11.6147 0.0288086C14.3563 0.0373133 17.0996 0.0390143 19.8413 0.0288086C20.1596 0.0288086 20.2554 0.113856 20.2457 0.457446C20.0605 6.56894 17.8078 11.6837 13.515 15.8204C13.2584 16.067 12.9579 16.2643 12.7484 16.562C12.6217 16.6402 12.4853 16.7049 12.3699 16.8001C10.2487 18.5334 7.87901 19.7478 5.28841 20.4878C3.7779 20.9198 2.23328 21.1545 0.667548 21.2141V21.2124Z" fill="#D29F53"/>
<path d="M50.6815 11.8079C50.7562 11.8113 50.8309 11.8147 50.9073 11.8198C51.0502 11.9405 50.9868 12.1089 50.9868 12.2552C50.9917 15.0958 50.9836 17.9381 50.9982 20.7786C50.9998 21.1375 50.8894 21.2175 50.5678 21.2345C45.1202 21.5219 40.8567 25.4528 39.9016 31.0557C39.8107 31.5847 39.7571 32.1205 39.7652 32.658C39.7685 32.8893 39.7002 32.9812 39.4647 32.9795C36.6695 32.9727 33.8742 32.9693 31.079 32.9812C30.7363 32.9812 30.759 32.789 30.7639 32.5509C30.85 28.4159 31.9901 24.6262 34.1779 21.1835C35.2548 19.4893 36.5525 17.9993 38.0403 16.693C38.1215 16.6215 38.2287 16.5756 38.2466 16.4463C38.6396 16.2762 38.932 15.9514 39.2731 15.6996C41.3732 14.1501 43.6617 13.0495 46.1597 12.4066C47.6475 12.0239 49.1531 11.8249 50.6847 11.8062L50.6815 11.8079Z" fill="#D29F53"/>
<path d="M0.667969 21.2126C2.23533 21.1531 3.77832 20.9184 5.28883 20.4863C7.87943 19.7464 10.2491 18.5302 12.3704 16.7987C12.4857 16.7051 12.6221 16.6405 12.7488 16.5605C13.5723 17.1389 14.2447 17.8941 14.9171 18.6425C15.7308 19.5491 16.4471 20.5391 17.0838 21.5919C17.1553 21.7093 17.2007 21.8437 17.2592 21.9712C17.1179 22.4492 16.8272 22.8438 16.5933 23.2691C14.9252 26.3053 13.2491 29.338 11.5745 32.3708C11.4868 32.529 11.3828 32.6753 11.2854 32.8267C11.1944 32.0153 11.1782 31.1938 10.9768 30.3994C9.72615 25.4395 6.69214 22.4407 1.90724 21.3759C1.50119 21.2858 1.08052 21.2654 0.667969 21.2126Z" fill="#E4D1B2"/>
<path d="M50.6813 11.8082C49.1513 11.8252 47.6456 12.0242 46.1562 12.4086C43.6598 13.0516 41.3697 14.1521 39.2696 15.7016C38.9302 15.9534 38.6362 16.2783 38.2431 16.4484C37.137 15.6047 36.2194 14.5586 35.3423 13.47C34.743 12.7267 34.2313 11.9136 33.7148 11.1074C34.9265 8.90128 36.1333 6.69345 37.3498 4.48903C38.1392 3.05684 38.9399 1.63315 39.7374 0.206055C39.7975 1.87468 40.0898 3.49398 40.8061 4.99421C42.7763 9.1207 45.9532 11.4034 50.3646 11.7674C50.4701 11.7759 50.5773 11.7929 50.6829 11.8065L50.6813 11.8082Z" fill="#E4D1B2"/>
</g>
<path d="M64.32 10.4601L61.46 10.5601L60.68 14.9201H59L59.34 9.1401H72.24L72.48 14.9201H70.9L70.12 10.5601L67.3 10.4601V22.6001L70.1 22.8001V24.0001H61.76V22.8001L64.32 22.6001V10.4601Z" fill="#111111"/>
<path d="M74.7583 9.3801L73.2383 9.1201V8.0401L76.9583 7.6001H77.0183L77.5383 7.9801L77.5583 12.4401L77.4183 14.1801C77.8316 13.8068 78.3916 13.4601 79.0983 13.1401C79.8183 12.8201 80.5716 12.6601 81.3583 12.6601C82.1983 12.6601 82.8516 12.8201 83.3183 13.1401C83.7849 13.4468 84.1116 13.9201 84.2983 14.5601C84.4849 15.2001 84.5783 16.0534 84.5783 17.1201V22.6201L85.8583 22.8001V24.0001H80.5983V22.8001L81.7583 22.6201V17.1201C81.7583 16.4268 81.7116 15.8868 81.6183 15.5001C81.5249 15.1134 81.3516 14.8268 81.0983 14.6401C80.8583 14.4534 80.4983 14.3601 80.0183 14.3601C79.6049 14.3601 79.1783 14.4601 78.7383 14.6601C78.3116 14.8468 77.9316 15.0734 77.5983 15.3401V22.6201L78.8183 22.8001V24.0001H73.6383V22.8001L74.7583 22.6401V9.3801Z" fill="#111111"/>
<path d="M92.2567 24.2201C90.4967 24.2201 89.1834 23.7068 88.3167 22.6801C87.4634 21.6401 87.0367 20.2268 87.0367 18.4401C87.0367 17.2401 87.2567 16.2001 87.6967 15.3201C88.1501 14.4401 88.7834 13.7668 89.5967 13.3001C90.4101 12.8334 91.3501 12.6001 92.4167 12.6001C93.75 12.6001 94.7767 12.9534 95.4967 13.6601C96.2167 14.3534 96.59 15.3468 96.6167 16.6401C96.6167 17.5201 96.5634 18.1734 96.4567 18.6001H89.9567C90.0101 19.8134 90.2967 20.7601 90.8167 21.4401C91.3367 22.1068 92.0767 22.4401 93.0367 22.4401C93.5567 22.4401 94.0901 22.3534 94.6367 22.1801C95.1967 22.0068 95.6367 21.8001 95.9567 21.5601L96.4567 22.6601C96.0967 23.0468 95.5101 23.4068 94.6967 23.7401C93.8967 24.0601 93.0834 24.2201 92.2567 24.2201ZM93.8167 17.4001C93.8434 17.0268 93.8567 16.7401 93.8567 16.5401C93.8567 14.7668 93.2634 13.8801 92.0767 13.8801C91.4234 13.8801 90.9167 14.1401 90.5567 14.6601C90.1967 15.1801 89.9967 16.0934 89.9567 17.4001H93.8167Z" fill="#111111"/>
<path d="M101.699 9.1401H107.699V10.3801L105.959 10.6401L108.479 19.6601L108.939 21.8801L109.399 19.6601L111.539 12.3401L110.979 10.6401L109.659 10.3801V9.1401H115.919V10.3801L113.999 10.6401L116.499 19.6601L117.039 22.0601L117.459 19.6601L119.739 10.6401L117.939 10.3801V9.1401H122.759V10.3801L121.479 10.6401L117.679 24.1001H115.039L112.279 14.7601L109.639 24.1001H107.039L102.919 10.6601L101.699 10.3801V9.1401Z" fill="#111111"/>
<path d="M128.331 24.2201C126.571 24.2201 125.258 23.7068 124.391 22.6801C123.538 21.6401 123.111 20.2268 123.111 18.4401C123.111 17.2401 123.331 16.2001 123.771 15.3201C124.224 14.4401 124.858 13.7668 125.671 13.3001C126.484 12.8334 127.424 12.6001 128.491 12.6001C129.824 12.6001 130.851 12.9534 131.571 13.6601C132.291 14.3534 132.664 15.3468 132.691 16.6401C132.691 17.5201 132.638 18.1734 132.531 18.6001H126.031C126.084 19.8134 126.371 20.7601 126.891 21.4401C127.411 22.1068 128.151 22.4401 129.111 22.4401C129.631 22.4401 130.164 22.3534 130.711 22.1801C131.271 22.0068 131.711 21.8001 132.031 21.5601L132.531 22.6601C132.171 23.0468 131.584 23.4068 130.771 23.7401C129.971 24.0601 129.158 24.2201 128.331 24.2201ZM129.891 17.4001C129.918 17.0268 129.931 16.7401 129.931 16.5401C129.931 14.7668 129.338 13.8801 128.151 13.8801C127.498 13.8801 126.991 14.1401 126.631 14.6601C126.271 15.1801 126.071 16.0934 126.031 17.4001H129.891Z" fill="#111111"/>
<path d="M133.387 8.0401L137.047 7.6001H137.087L137.647 7.9801V13.8801C138.007 13.5201 138.447 13.2201 138.967 12.9801C139.5 12.7268 140.074 12.6001 140.687 12.6001C141.967 12.6001 143.007 13.0534 143.807 13.9601C144.62 14.8534 145.027 16.2268 145.027 18.0801C145.027 19.2268 144.787 20.2668 144.307 21.2001C143.827 22.1334 143.134 22.8734 142.227 23.4201C141.334 23.9534 140.294 24.2201 139.107 24.2201C138.054 24.2201 137.14 24.1334 136.367 23.9601C135.594 23.7734 135.1 23.6068 134.887 23.4601V9.3201L133.387 9.0801V8.0401ZM139.627 14.3601C139.227 14.3601 138.847 14.4534 138.487 14.6401C138.14 14.8134 137.86 15.0134 137.647 15.2401V22.5401C137.727 22.6868 137.914 22.8068 138.207 22.9001C138.5 22.9934 138.834 23.0401 139.207 23.0401C140.06 23.0401 140.74 22.6468 141.247 21.8601C141.767 21.0601 142.027 19.8801 142.027 18.3201C142.027 16.9734 141.807 15.9801 141.367 15.3401C140.927 14.6868 140.347 14.3601 139.627 14.3601Z" fill="#111111"/>
<path d="M148.85 14.3201L148.39 16.2801H146.95V12.8801H155.77L156.23 13.9201L150.91 21.3001L149.51 22.7401L153.99 22.5201L154.95 20.2201L156.31 20.3801L155.99 24.0001H146.71L146.21 22.9001L151.67 15.6801L153.11 14.1801L148.85 14.3201Z" fill="#111111"/>
<path d="M161.163 24.1801C160.323 24.1801 159.703 23.9868 159.303 23.6001C158.903 23.2134 158.703 22.6001 158.703 21.7601V14.4201H157.403V13.3801C157.509 13.3401 157.703 13.2734 157.983 13.1801C158.263 13.0734 158.476 12.9868 158.623 12.9201C158.849 12.7468 159.043 12.4468 159.203 12.0201C159.323 11.7401 159.543 11.0468 159.863 9.9401H161.463L161.543 12.8801H164.603V14.4201H161.563V20.0401C161.563 20.7868 161.583 21.3134 161.623 21.6201C161.663 21.9268 161.749 22.1268 161.883 22.2201C162.016 22.3001 162.249 22.3401 162.583 22.3401C162.916 22.3401 163.263 22.3068 163.623 22.2401C163.983 22.1601 164.283 22.0668 164.523 21.9601L164.903 23.0801C164.529 23.3601 163.983 23.6134 163.263 23.8401C162.543 24.0668 161.843 24.1801 161.163 24.1801Z" fill="#111111"/>
<path d="M171.007 24.2201C169.247 24.2201 167.933 23.7068 167.067 22.6801C166.213 21.6401 165.787 20.2268 165.787 18.4401C165.787 17.2401 166.007 16.2001 166.447 15.3201C166.9 14.4401 167.533 13.7668 168.347 13.3001C169.16 12.8334 170.1 12.6001 171.167 12.6001C172.5 12.6001 173.527 12.9534 174.247 13.6601C174.967 14.3534 175.34 15.3468 175.367 16.6401C175.367 17.5201 175.313 18.1734 175.207 18.6001H168.707C168.76 19.8134 169.047 20.7601 169.567 21.4401C170.087 22.1068 170.827 22.4401 171.787 22.4401C172.307 22.4401 172.84 22.3534 173.387 22.1801C173.947 22.0068 174.387 21.8001 174.707 21.5601L175.207 22.6601C174.847 23.0468 174.26 23.4068 173.447 23.7401C172.647 24.0601 171.833 24.2201 171.007 24.2201ZM172.567 17.4001C172.593 17.0268 172.607 16.7401 172.607 16.5401C172.607 14.7668 172.013 13.8801 170.827 13.8801C170.173 13.8801 169.667 14.1401 169.307 14.6601C168.947 15.1801 168.747 16.0934 168.707 17.4001H172.567Z" fill="#111111"/>
<path d="M176.963 22.8201L178.283 22.6601V14.7801L177.003 14.4201V13.0401L180.103 12.6201H180.163L180.663 13.0201V13.4601L180.603 15.0801H180.663C180.756 14.8134 180.976 14.4868 181.323 14.1001C181.669 13.7001 182.103 13.3534 182.623 13.0601C183.156 12.7534 183.729 12.6001 184.343 12.6001C184.636 12.6001 184.889 12.6401 185.103 12.7201V15.7201C184.703 15.4401 184.216 15.3001 183.643 15.3001C182.669 15.3001 181.823 15.5601 181.103 16.0801V22.6401L183.423 22.8201V24.0001H176.963V22.8201Z" fill="#111111"/>
<defs>
<clipPath id="clip0_2688_112">
<rect width="51" height="33" fill="white"/>
</clipPath>
</defs>
</svg>
