<svg width="65" height="64" viewBox="0 0 65 64" fill="none" xmlns="http://www.w3.org/2000/svg">
<path d="M6.20914 18.295C6.20914 16.5733 6.21583 15.2633 6.2058 13.9533C6.20246 13.4467 6.39131 13.0867 6.83755 12.8283C11.1211 10.3483 15.5651 8.24666 20.3818 6.99332C25.9857 5.53499 31.6615 5.08999 37.4242 5.67333C44.5707 6.39666 51.1439 8.78166 57.3545 12.3167C58.4659 12.95 58.9289 13.6217 58.857 14.9033C58.6832 17.9933 58.8754 21.1183 58.5094 24.1817C56.9785 37.0283 51.3411 47.5817 40.5712 55.12C38.325 56.6917 35.8364 57.8167 33.1807 58.5367C32.7829 58.645 32.3033 58.655 31.9072 58.5433C26.559 57.045 22.1751 53.9917 18.3863 50.035C12.1122 43.4833 8.36346 35.6733 6.84925 26.765C6.34953 23.8233 6.16569 20.8617 6.21081 18.295H6.20914ZM8.34507 18.585C8.30162 21.0283 8.49883 23.8017 8.98017 26.555C10.598 35.8183 14.6877 43.7733 21.6186 50.2067C24.5818 52.9583 27.9412 55.075 31.8219 56.32C32.2949 56.4717 32.7194 56.4883 33.2074 56.33C36.0721 55.405 38.6977 54.0217 41.0593 52.175C48.6587 46.235 53.2999 38.435 55.5528 29.1383C56.701 24.4017 56.7662 19.5867 56.6793 14.7567C56.676 14.57 56.4704 14.32 56.2899 14.2167C53.325 12.5133 50.2665 11.0133 47.0125 9.92833C39.8175 7.52833 32.4854 6.94832 25.0013 8.18166C19.1735 9.14166 13.7852 11.2733 8.71443 14.245C8.53226 14.3517 8.37014 14.6517 8.36346 14.8667C8.32836 15.9883 8.34674 17.1117 8.34674 18.585H8.34507Z" fill="#D29F53"/>
<path d="M32.1245 45.3664C23.8014 45.0197 17.6711 38.3431 18.0087 29.9897C18.3162 22.3697 25.2538 16.0447 32.9451 16.3731C41.2398 16.7281 47.3635 23.3981 47.0309 31.7147C46.7251 39.3481 39.8042 45.6864 32.1245 45.3664ZM32.4989 18.4947C25.6499 18.5181 20.1128 24.0714 20.1262 30.9047C20.1379 37.6981 25.69 43.2297 32.5072 43.2447C39.3579 43.2597 44.9351 37.6664 44.9117 30.8014C44.8883 24.0147 39.2961 18.4714 32.4989 18.4947Z" fill="#D29F53"/>
<path d="M29.7311 33.6483C29.9634 33.4283 30.1306 33.2783 30.2893 33.1199C32.6175 30.7983 34.9456 28.4766 37.2754 26.1549C37.4375 25.9933 37.5963 25.8183 37.7885 25.7033C38.2531 25.4283 38.7194 25.4683 39.1005 25.8566C39.4832 26.2433 39.5166 26.7066 39.2308 27.1683C39.1239 27.3416 38.9601 27.4833 38.813 27.6299C36.1473 30.2916 33.4815 32.9516 30.8125 35.6099C29.9902 36.4283 29.5506 36.4233 28.7166 35.5916C27.8325 34.7099 26.9434 33.8333 26.066 32.9449C25.5378 32.4116 25.4927 31.7983 25.9222 31.3483C26.3685 30.8816 27.0286 30.9099 27.5735 31.4499C28.2938 32.1649 28.9958 32.8966 29.7311 33.6466V33.6483Z" fill="#D29F53"/>
</svg>
