<svg width="65" height="64" viewBox="0 0 65 64" fill="none" xmlns="http://www.w3.org/2000/svg">
<path d="M47.3021 63.9982C47.0163 63.6532 46.6754 63.3399 46.4531 62.9565C43.7106 58.2517 40.9814 53.5368 38.2589 48.8186C38.0299 48.4219 37.7341 48.2253 37.3113 48.0269C36.1665 47.4886 35.0501 46.8703 33.9871 46.182C33.2919 45.732 32.7538 45.667 32.0451 46.1537C31.1911 46.742 30.2652 47.237 29.336 47.702C28.8079 47.9653 28.1945 48.0569 27.6447 48.2853C27.3923 48.3903 27.1216 48.5936 26.9879 48.8253C24.2771 53.4785 21.5864 58.1417 18.8906 62.8016C18.807 62.9449 18.7252 63.0899 18.6382 63.2315C18.3525 63.6949 17.9547 63.9599 17.3898 63.8699C16.8049 63.7765 16.5592 63.3716 16.4806 62.8299C16.1999 60.8966 15.9191 58.965 15.6367 57.0317C15.533 56.3151 15.4278 55.6001 15.3108 54.8034C15.0333 54.9018 14.8044 54.9751 14.5804 55.0634C12.4128 55.9217 10.2452 56.7767 8.08254 57.6483C7.49092 57.8867 6.9043 58.075 6.41796 57.5134C5.91658 56.935 6.189 56.3534 6.51657 55.7901C9.20229 51.1718 11.8813 46.5486 14.5754 41.9354C14.811 41.5321 14.9013 41.2238 14.6773 40.7455C14.4501 40.2588 14.3882 39.6655 14.3715 39.1155C14.3364 37.9522 14.3631 36.7872 14.3966 35.6223C14.4066 35.2589 14.2796 35.0656 13.9671 34.8923C12.8941 34.294 11.8362 33.669 10.7783 33.044C8.7076 31.8207 8.20621 29.9224 9.41119 27.8408C9.98443 26.8508 10.5644 25.8658 11.171 24.8959C11.3532 24.6059 11.3432 24.4009 11.171 24.1126C10.5393 23.0609 9.93764 21.9926 9.32763 20.9276C8.13267 18.8377 8.71762 16.7544 10.8318 15.5794C11.7961 15.0428 12.7738 14.5295 13.7197 13.9628C13.9169 13.8445 14.1074 13.5362 14.1141 13.3112C14.1509 12.0229 14.1242 10.7329 14.1342 9.44293C14.1526 7.19299 15.6166 5.73637 17.8678 5.73637C19.0143 5.73637 20.1624 5.75304 21.3089 5.79137C21.6666 5.80303 21.8738 5.69804 22.0526 5.37805C22.661 4.28974 23.2961 3.21643 23.9362 2.14479C25.1411 0.12818 27.0831 -0.368479 29.1171 0.81649C30.0881 1.38148 31.0624 1.9448 32.0184 2.53812C32.3426 2.73978 32.59 2.75145 32.9226 2.55145C33.9571 1.92813 35.01 1.33815 36.0595 0.7415C38.1837 -0.466802 40.2343 0.111515 41.4025 2.23979C41.9323 3.20477 42.4872 4.15807 43.0003 5.13305C43.1791 5.47304 43.388 5.60304 43.7757 5.59638C45.0058 5.57304 46.2375 5.58303 47.4676 5.58803C49.8341 5.5997 51.2647 7.053 51.243 9.42794C51.2329 10.5512 51.2246 11.6745 51.1845 12.7962C51.1711 13.1578 51.2981 13.3545 51.6073 13.5278C52.6786 14.1278 53.7382 14.7511 54.7961 15.3745C56.9169 16.6244 57.3932 18.5827 56.1047 20.6677C55.5364 21.5876 55.005 22.5293 54.4234 23.4409C54.2061 23.7809 54.1844 24.0326 54.4033 24.3925C55.0401 25.4409 55.6317 26.5158 56.2317 27.5858C57.3999 29.6691 56.8484 31.614 54.771 32.7623C53.7866 33.3057 52.8106 33.8623 51.8145 34.3856C51.5154 34.5423 51.4034 34.7223 51.4084 35.0606C51.4285 36.2872 51.4134 37.5139 51.4168 38.7405C51.4201 39.6538 51.2563 40.5071 50.7065 41.2771C50.6029 41.4238 50.6697 41.7838 50.7783 41.9754C52.6351 45.2237 54.5119 48.4619 56.3838 51.7019C57.206 53.1235 58.0183 54.5518 58.8522 55.9667C59.1731 56.5101 59.3486 57.0384 58.8673 57.565C58.416 58.0583 57.8779 57.985 57.3147 57.76C55.015 56.84 52.7137 55.9267 50.4107 55.0151C50.2786 54.9634 50.1399 54.9301 49.9594 54.8751C49.6552 56.9634 49.3561 59.015 49.0569 61.0683C48.9817 61.5816 48.8748 62.0932 48.8363 62.6099C48.7912 63.2082 48.5622 63.6765 48.0508 63.9999H47.3004L47.3021 63.9982ZM45.452 40.4021C45.452 40.4121 45.452 40.4221 45.452 40.4338C46.1824 40.4338 46.911 40.4371 47.6414 40.4338C48.7544 40.4271 49.1923 39.9972 49.1973 38.8855C49.2057 37.3672 49.2074 35.8506 49.1973 34.3323C49.1923 33.7106 49.4346 33.2673 49.9795 32.9523C51.258 32.2107 52.5181 31.439 53.7933 30.6924C54.8011 30.1024 54.9649 29.5208 54.3732 28.4958C53.6362 27.2175 52.9142 25.9292 52.1438 24.6709C51.7811 24.0792 51.8012 23.5709 52.1638 22.9942C52.9042 21.8143 53.6145 20.616 54.3164 19.4143C54.8462 18.506 54.664 17.8511 53.7666 17.3294C52.5064 16.5961 51.2613 15.8378 49.9745 15.1561C49.2542 14.7745 48.9583 14.2745 48.9951 13.4645C49.0569 12.1362 49.0402 10.8046 49.0486 9.4746C49.0569 8.24463 48.594 7.77131 47.3656 7.76464C45.8849 7.75798 44.4041 7.74965 42.9251 7.76798C42.2716 7.77631 41.8254 7.53798 41.5112 6.953C40.851 5.72803 40.1457 4.5264 39.4722 3.30809C38.8956 2.26645 38.2806 2.07979 37.2227 2.67144C35.8957 3.41309 34.5637 4.14475 33.2568 4.91806C32.6836 5.25805 32.1872 5.24638 31.629 4.90139C30.4775 4.1914 29.3059 3.51476 28.1377 2.82977C27.272 2.32312 26.6018 2.49645 26.0954 3.3631C25.3183 4.68973 24.5328 6.01303 23.7841 7.35633C23.4732 7.91465 23.0604 8.1563 22.4237 8.1413C20.9864 8.10797 19.5457 8.10631 18.1085 8.10131C16.9653 8.09797 16.5074 8.54629 16.5024 9.6746C16.4957 11.1712 16.4873 12.6679 16.5074 14.1645C16.5157 14.8411 16.255 15.2978 15.6484 15.6194C14.3982 16.2811 13.1665 16.9811 11.9298 17.6661C10.912 18.2294 10.7348 18.846 11.3131 19.8643C12.0518 21.166 12.7788 22.4743 13.5543 23.7526C13.9119 24.3426 13.9102 24.8492 13.5476 25.4292C12.8206 26.5925 12.132 27.7791 11.4334 28.9591C10.8568 29.9341 11.0206 30.5724 11.9833 31.1307C13.2802 31.8824 14.5654 32.654 15.8823 33.369C16.4974 33.704 16.7297 34.1606 16.7113 34.834C16.6728 36.2256 16.6628 37.6189 16.6528 39.0122C16.6444 40.1788 17.0639 40.6038 18.2188 40.6071C19.6995 40.6138 21.1802 40.6238 22.6593 40.6021C23.3412 40.5921 23.7924 40.8655 24.115 41.4654C24.7634 42.6737 25.452 43.8604 26.1222 45.057C26.7322 46.147 27.3121 46.307 28.4152 45.6753C29.6786 44.9504 30.9538 44.2454 32.1989 43.4871C32.7888 43.1271 33.2936 43.1304 33.8785 43.4904C35.137 44.2654 36.4105 45.0137 37.7007 45.7337C38.5129 46.187 39.1179 45.9837 39.5876 45.1853C40.3764 43.8404 41.1669 42.4971 41.944 41.1471C42.2415 40.6288 42.6443 40.3671 43.2643 40.3955C43.993 40.4288 44.7233 40.4038 45.4537 40.4038L45.452 40.4021ZM47.008 59.47C47.3289 57.39 47.6263 55.4934 47.9121 53.5935C48.1093 52.2885 48.6709 51.9468 49.8876 52.4202C51.5154 53.0551 53.1398 53.6968 54.766 54.3334C54.9498 54.4051 55.1403 54.4584 55.361 54.5318C55.3392 54.4234 55.3409 54.3801 55.3225 54.3484C53.1164 50.5369 50.9137 46.7253 48.6909 42.9237C48.604 42.7754 48.3416 42.6537 48.1561 42.6487C46.906 42.6104 45.6542 42.6371 44.4075 42.5771C43.8777 42.5521 43.6053 42.7254 43.3228 43.1687C42.3368 44.7137 41.7084 46.502 40.2243 47.7603C42.4554 51.6135 44.6883 55.4668 47.008 59.47ZM9.76216 54.4601C10.1248 54.3351 10.3187 54.2768 10.5042 54.2035C12.1504 53.5551 13.7932 52.9018 15.4411 52.2568C16.5208 51.8335 17.1642 52.1985 17.353 53.3485C17.5051 54.2701 17.6288 55.1968 17.7692 56.1217C17.9246 57.14 18.0834 58.1583 18.2622 59.3166C18.4444 59.0117 18.5547 58.8417 18.6533 58.6633C20.5034 55.2934 22.3384 51.9152 24.2153 48.5602C24.5996 47.8703 24.9657 47.277 24.1434 46.662C24.0214 46.5703 23.9679 46.3836 23.8877 46.2387C23.3295 45.2403 22.7596 44.2487 22.2248 43.2404C22.046 42.9037 21.8404 42.7754 21.451 42.7821C19.8315 42.8054 18.2104 42.7921 16.5124 42.7921C14.3314 46.5636 12.0952 50.4285 9.76383 54.4601H9.76216Z" fill="#D29F53"/>
<path d="M32.7939 8.99514C41.187 8.9818 48.0509 15.8283 48.0341 24.1997C48.0174 32.5862 41.1368 39.4294 32.7671 39.3827C24.3473 39.336 17.6255 32.6262 17.5653 24.2064C17.5052 15.8733 24.3774 9.00847 32.7939 8.99514ZM45.783 24.1814C45.7713 16.9883 39.9135 11.1751 32.707 11.2051C25.4972 11.2351 19.7129 17.0216 19.7213 24.1947C19.7313 31.4046 25.5674 37.2044 32.7822 37.1727C39.9837 37.1427 45.793 31.3362 45.7813 24.1798L45.783 24.1814Z" fill="#D29F53"/>
<path d="M27.4441 20.0195C27.9656 20.0195 28.487 19.9962 29.0067 20.0278C29.3661 20.0495 29.5265 19.9062 29.6268 19.5778C29.9143 18.6462 30.2284 17.7229 30.5293 16.7946C30.8635 15.7629 31.6641 15.1429 32.6919 15.1296C33.7147 15.1163 34.537 15.7079 34.8913 16.7429C35.2072 17.6662 35.5146 18.5912 35.7921 19.5262C35.9057 19.9112 36.0996 20.0412 36.5007 20.0278C37.4383 19.9995 38.3759 20.0078 39.3151 20.0228C40.5518 20.0412 41.3457 20.5811 41.6682 21.5945C42.0042 22.6461 41.6833 23.4844 40.6621 24.2277C39.9218 24.7677 39.1981 25.331 38.4344 25.8343C38.06 26.081 38.0266 26.316 38.1636 26.7077C38.4812 27.6076 38.7619 28.5209 39.0377 29.4342C39.3285 30.3976 39.1296 31.2559 38.3525 31.9175C37.6138 32.5458 36.7297 32.6492 35.8974 32.2225C35.1637 31.8458 34.5253 31.2859 33.8501 30.7992C33.0791 30.2437 32.3086 30.247 31.5387 30.8092C30.9671 31.2275 30.4056 31.6575 29.8223 32.0575C28.9483 32.6592 28.0274 32.6358 27.2152 32.0225C26.3979 31.4042 26.1038 30.5142 26.4096 29.5392C26.7138 28.5693 27.0129 27.5976 27.3489 26.6377C27.4742 26.2777 27.399 26.0743 27.0915 25.861C26.2893 25.3027 25.5021 24.7194 24.7216 24.1294C23.8576 23.4777 23.5116 22.4844 23.7974 21.5445C24.0698 20.6478 24.8971 20.0728 26.0085 20.0295C26.4865 20.0112 26.9678 20.0262 27.4458 20.0262C27.4458 20.0228 27.4458 20.0212 27.4458 20.0178L27.4441 20.0195ZM26.2709 22.3194C26.2558 22.3611 26.2408 22.4028 26.2258 22.4444C27.3087 23.2127 28.385 23.9894 29.4747 24.746C30.0145 25.121 30.17 25.5943 29.9594 26.2043C29.8574 26.4993 29.7622 26.7943 29.6669 27.091C29.3494 28.0626 29.0335 29.0359 28.6591 30.1809C29.8006 29.3409 30.7866 28.6159 31.771 27.891C32.6668 27.231 32.9743 27.231 33.8835 27.891C34.8696 28.6059 35.8556 29.3226 36.9887 30.1459C36.5642 28.8776 36.1965 27.7826 35.8289 26.686C35.3927 25.386 35.4361 25.251 36.5341 24.4494C37.465 23.7694 38.3926 23.0861 39.3201 22.4061C39.0728 22.2844 38.8722 22.2828 38.6717 22.2844C37.5887 22.2961 36.504 22.3161 35.4211 22.3161C34.6473 22.3161 34.2729 22.0461 34.0322 21.3161C33.713 20.3511 33.4139 19.3795 33.103 18.4112C33.0195 18.1529 32.9225 17.8979 32.8206 17.6146C32.7387 17.6879 32.7153 17.6979 32.7103 17.7146C32.3192 18.8962 31.9331 20.0778 31.5404 21.2578C31.2663 22.0794 30.9404 22.3161 30.0747 22.3178C28.8079 22.3228 27.5394 22.3178 26.2726 22.3178L26.2709 22.3194Z" fill="#D29F53"/>
</svg>
