<svg width="68" height="68" viewBox="0 0 68 68" fill="none" xmlns="http://www.w3.org/2000/svg">
<path d="M67.6866 5.46573V49.349C67.6569 49.3804 67.6131 49.4048 67.6009 49.4415C66.7681 51.9976 65.3683 53.0096 62.6651 53.0113C55.6823 53.0113 48.6977 53.0113 41.7148 53.0113C41.4629 53.0113 41.2109 53.0113 40.7857 53.0113C41.0429 54.1716 41.1812 55.2342 41.5171 56.2305C42.2974 58.5371 43.9124 59.6398 46.3549 59.6712C47.1177 59.6817 47.8823 59.6764 48.6452 59.6956C49.6775 59.7218 50.5698 60.083 51.2347 60.8873C52.0867 61.915 52.281 63.0892 51.7736 64.3123C51.2434 65.586 50.2409 66.3276 48.8429 66.3607C46.7923 66.4096 44.7399 66.3851 42.6894 66.3851C35.1169 66.3851 27.5426 66.359 19.9702 66.4026C17.6501 66.4165 16.2626 64.745 16.2819 63.0177C16.3046 61.0618 17.8111 59.7026 19.9597 59.6921C20.7662 59.6886 21.5763 59.7008 22.3812 59.6642C23.9069 59.5944 25.1719 58.982 26.0537 57.717C27.0177 56.3317 27.3222 54.7456 27.3887 53.0131C27.0877 53.0131 26.8323 53.0131 26.5751 53.0131C19.5485 53.0131 12.5201 53.0131 5.49355 53.0131C2.48415 53.0131 0.63302 51.1723 0.631271 48.18C0.631271 41.302 0.631271 34.4258 0.631271 27.5478C0.631271 20.4971 0.629521 13.4447 0.631271 6.39398C0.631271 4.41713 1.50784 2.94277 3.32573 2.15063C3.9801 1.86623 4.76395 1.77028 5.4883 1.77028C24.6067 1.75108 43.7234 1.75456 62.8418 1.75631C63.0815 1.75631 63.3212 1.76329 63.5609 1.78073C65.3666 1.91334 66.8695 3.08411 67.4487 4.80447C67.5239 5.02781 67.6061 5.24764 67.6866 5.46923V5.46573ZM7.36218 41.7749H60.9435V8.49122H7.36218V41.7749ZM2.86207 44.1547C2.86207 45.4546 2.86207 46.7126 2.86207 47.9689C2.86207 50.0016 3.63717 50.7832 5.65452 50.7832C24.661 50.7832 43.6674 50.7832 62.6739 50.7832C62.8698 50.7832 63.0675 50.7885 63.2635 50.7797C64.3745 50.7309 65.3473 49.9597 65.4086 48.8674C65.4961 47.3111 65.4313 45.7478 65.4313 44.153H2.86207V44.1547ZM65.4558 41.8045V41.0543C65.4558 29.584 65.4558 18.112 65.4558 6.64172C65.4558 4.79748 64.6387 3.98441 62.7754 3.98441C43.6989 3.98441 24.6207 3.98441 5.54429 3.98441C3.67916 3.98441 2.86383 4.79401 2.86383 6.64C2.86383 18.1103 2.86383 29.5823 2.86383 41.0525C2.86383 41.2881 2.86383 41.5236 2.86383 41.8028H5.09638V40.9932C5.09638 29.9574 5.09638 18.9216 5.09638 7.88576C5.09638 6.50214 5.38682 6.21426 6.78829 6.21426C25.0354 6.21426 43.2842 6.21426 61.5313 6.21426C62.9328 6.21426 63.225 6.5039 63.225 7.88403C63.225 18.9198 63.225 29.9556 63.225 40.9915V41.8028H65.4576L65.4558 41.8045ZM40.9362 59.6346C39.3178 57.6734 38.8541 55.3947 38.6442 53.0602H29.6615C29.4725 55.4418 28.9739 57.6874 27.3887 59.6346H40.9362ZM34.1231 64.1501C38.7929 64.1501 43.4627 64.1501 48.1325 64.1501C48.3722 64.1501 48.6154 64.1588 48.8516 64.1239C49.3923 64.0436 49.7125 63.7156 49.772 63.1747C49.8332 62.6077 49.5882 62.1889 49.0406 62.0145C48.7782 61.9307 48.4825 61.9237 48.2025 61.9237C45.2788 61.9324 42.3552 61.9656 39.4315 61.9621C33.3217 61.9569 27.212 61.9342 21.1022 61.9202C20.579 61.9202 20.0506 61.8941 19.5327 61.9464C18.8941 62.011 18.504 62.5012 18.5337 63.1049C18.5617 63.6842 18.9641 64.0838 19.5905 64.1378C19.8074 64.157 20.0261 64.1501 20.2449 64.1501C24.8709 64.1501 29.497 64.1501 34.1248 64.1501H34.1231Z" fill="#D29F53"/>
<path d="M53.1575 32.7367C52.7533 33.3404 52.4086 33.8621 52.0587 34.3803C51.5338 35.1568 50.9074 35.3766 50.3195 34.9927C49.7229 34.6037 49.5934 33.8674 50.1953 33.1799C51.7892 31.3618 52.3019 29.2925 52.0674 26.9213C51.9275 25.5011 52.0412 24.0581 52.0412 22.4739C51.3886 22.7722 50.8532 23.1072 50.2688 23.2677C48.9338 23.6324 48.5506 24.4193 48.6521 25.7802C48.7956 27.6856 48.6714 29.6083 48.6959 31.5224C48.7046 32.215 48.4439 32.6634 47.8193 32.974C43.5256 35.1027 39.239 37.2418 34.9559 39.3896C34.3995 39.6688 33.9043 39.6618 33.3444 39.3809C29.084 37.24 24.8166 35.1114 20.5422 32.9984C19.8966 32.6791 19.6044 32.2447 19.6114 31.5171C19.6377 29.1878 19.6114 26.8603 19.6307 24.531C19.6342 24.1506 19.5169 23.9517 19.1653 23.7929C17.7358 23.1473 16.3256 22.4599 14.8996 21.8091C14.3992 21.5805 14.0458 21.2595 14.0458 20.6907C14.0458 20.1201 14.4115 19.8078 14.9066 19.5775C21.0619 16.6986 27.2154 13.8162 33.3602 10.9146C33.9568 10.632 34.4625 10.6808 35.0346 10.9495C41.0044 13.7621 46.9795 16.5608 52.9545 19.3629C53.1312 19.4466 53.3149 19.5147 53.4934 19.5932C54.0463 19.8392 54.321 20.251 54.3175 20.8686C54.2982 23.8714 54.2825 26.8742 54.2947 29.877C54.2947 30.1998 54.4207 30.561 54.5922 30.8384C55.1048 31.6724 55.677 32.4698 56.2124 33.2898C56.6533 33.9651 56.5553 34.6403 55.9832 35.0015C55.4408 35.3452 54.8021 35.169 54.3595 34.5321C53.9746 33.979 53.6089 33.4137 53.1557 32.7385L53.1575 32.7367ZM47.8595 19.5391C47.863 19.5077 47.8683 19.4763 47.8718 19.4432C43.4172 17.3529 38.966 15.2574 34.5009 13.1881C34.2787 13.0851 33.9096 13.1462 33.6664 13.2596C29.7944 15.055 25.9312 16.8678 22.0679 18.6807C20.6787 19.3332 19.2912 19.991 17.8355 20.6785C18.0105 20.7779 18.0997 20.8373 18.1959 20.8826C23.3732 23.3079 28.5469 25.7349 33.7328 28.1392C33.9795 28.2526 34.375 28.2387 34.6269 28.1218C38.5724 26.2932 42.5038 24.4385 46.4406 22.5908C46.9217 22.3657 47.4064 22.1458 47.8875 21.9243L47.8578 21.8405H35.2638C35.2638 22.2436 35.2918 22.6135 35.2568 22.9764C35.1938 23.6307 34.7494 24.0302 34.1423 24.0232C33.5596 24.0163 33.0837 23.6341 33.068 23.013C33.0295 21.4706 33.0295 19.9265 33.0662 18.3841C33.0802 17.7716 33.5666 17.3703 34.1335 17.3581C34.7267 17.3459 35.1921 17.7594 35.2568 18.4033C35.2935 18.7662 35.2638 19.1361 35.2638 19.5409H47.8595V19.5391ZM21.858 25.0963C21.858 27.1045 21.8492 28.9767 21.8737 30.8471C21.8755 31.0059 22.0557 31.231 22.2131 31.3095C26.0659 33.2462 29.9256 35.169 33.7941 37.076C33.99 37.1737 34.3172 37.1842 34.5097 37.0882C38.3782 35.1812 42.2396 33.2567 46.0906 31.3147C46.2673 31.2257 46.4318 30.9361 46.4441 30.732C46.486 29.9939 46.4616 29.2524 46.4616 28.5126C46.4616 27.4134 46.4616 26.3159 46.4616 25.1922C46.3146 25.2132 46.2463 25.2079 46.1939 25.2324C42.6683 26.8795 39.1428 28.5248 35.6295 30.1963C35.458 30.2783 35.3128 30.5871 35.2988 30.8C35.255 31.4718 35.2988 32.1487 35.276 32.824C35.2515 33.5986 34.7931 34.0802 34.137 34.0645C33.5001 34.0505 33.0732 33.5882 33.047 32.8414C33.0242 32.1889 33.019 31.5346 33.047 30.8838C33.0662 30.4772 32.9228 30.2696 32.5448 30.0969C30.3105 29.0727 28.0902 28.0205 25.8647 26.9772C24.5699 26.37 23.2769 25.7628 21.8597 25.0998L21.858 25.0963Z" fill="#D29F53"/>
<path d="M34.1651 46.3359C35.2324 46.3359 36.2997 46.3289 37.3669 46.3377C38.1455 46.3446 38.6214 46.7791 38.6162 47.4474C38.6127 48.1069 38.1263 48.5518 37.3529 48.5553C35.2184 48.564 33.0838 48.5658 30.9492 48.5553C30.1811 48.5518 29.6965 48.0964 29.7 47.4334C29.7035 46.7634 30.1741 46.3429 30.9615 46.3359C32.0288 46.3272 33.096 46.3342 34.1633 46.3342L34.1651 46.3359Z" fill="#D29F53"/>
</svg>
