<svg width="74" height="64" viewBox="0 0 74 64" fill="none" xmlns="http://www.w3.org/2000/svg">
<path d="M65.7263 54.1846C65.7263 55.0965 65.7263 55.9105 65.7263 56.722C65.7263 58.5907 65.7766 60.4594 65.6945 62.3254C65.6706 62.8461 65.3897 63.5148 64.9974 63.8267C64.4329 64.2707 63.8922 63.7712 63.4363 63.3404C60.4412 60.5096 57.4277 57.6947 54.4485 54.848C53.9529 54.3749 53.4625 54.1714 52.7734 54.1714C44.3263 54.1925 35.8819 54.1925 27.4348 54.1819C24.2304 54.1793 22.2876 52.2287 22.2637 49.0305C22.2558 47.8913 22.2637 46.7521 22.2637 45.6103C22.2637 45.2746 22.2637 44.9416 22.2637 44.3522C21.6038 44.9627 21.124 45.4015 20.6523 45.8482C17.8136 48.523 14.9776 51.1979 12.1389 53.8727C11.6777 54.3062 11.2404 54.8216 10.493 54.5044C9.71371 54.174 9.75614 53.4895 9.75879 52.8128C9.7641 49.6173 9.75879 46.4244 9.75879 43.0941C8.63234 43.0941 7.56419 43.0967 6.49869 43.0941C2.71381 43.0808 0.508614 40.9082 0.505964 37.1497C0.498012 26.7649 0.498012 16.3801 0.505964 5.99525C0.508614 2.23938 2.72705 0.00594702 6.47483 0.00594702C22.4784 -0.00198234 38.482 -0.00198234 54.4856 0.00594702C58.1698 0.00594702 60.4121 2.27374 60.42 5.93975C60.4253 9.29651 60.42 12.6506 60.42 16.0074C60.42 16.351 60.42 16.6972 60.42 17.1756C60.8256 17.1756 61.1622 17.1756 61.4988 17.1756C63.818 17.1756 66.1345 17.1677 68.4536 17.1756C71.6051 17.1862 73.585 19.1368 73.5876 22.2557C73.5956 31.2159 73.5956 40.1761 73.5876 49.1336C73.585 52.1362 71.5971 54.1291 68.5888 54.1767C67.677 54.1925 66.7626 54.1767 65.7342 54.1767L65.7263 54.1846ZM12.0409 50.7697C12.351 50.5107 12.4967 50.3996 12.6319 50.2728C15.7224 47.3601 18.7969 44.4288 21.9192 41.5505C22.3432 41.1619 23.0112 40.8236 23.5678 40.8236C33.8198 40.7893 44.0692 40.8078 54.3213 40.8131C56.9877 40.8131 58.1274 39.6633 58.1274 36.9885C58.1274 26.7041 58.1274 16.4197 58.1274 6.13269C58.1274 3.44464 56.9506 2.28167 54.2259 2.28167C38.3892 2.28167 22.55 2.28167 6.71338 2.28167C3.91978 2.28167 2.78006 3.41557 2.78006 6.19084C2.78006 12.7722 2.78006 19.3562 2.78006 25.9376C2.78006 29.7357 2.76682 33.5339 2.78537 37.3294C2.79597 39.5734 4.0311 40.7919 6.26545 40.8104C7.63045 40.821 8.99543 40.8104 10.3604 40.8131C11.6989 40.8183 12.0382 41.1593 12.0409 42.4994C12.0435 45.1821 12.0409 47.8675 12.0409 50.767V50.7697ZM63.4442 60.1395C63.4442 59.6373 63.4442 59.336 63.4442 59.0347C63.4442 57.1977 63.4389 55.3634 63.4442 53.5265C63.4495 52.2049 63.7305 51.93 65.0796 51.9247C66.0947 51.9194 67.1125 51.9247 68.1276 51.9247C70.4044 51.9142 71.2976 51.0234 71.2976 48.7583C71.2976 40.0228 71.2976 31.2873 71.2976 22.5491C71.2976 22.3271 71.3029 22.1051 71.2896 21.8857C71.2101 20.4928 70.256 19.5174 68.8539 19.4725C67.5843 19.4329 66.3147 19.4593 65.0451 19.4567C63.5317 19.4567 62.0183 19.4567 60.4121 19.4567C60.4121 19.906 60.4121 20.2469 60.4121 20.5879C60.4121 26.001 60.3061 31.4168 60.4492 36.8246C60.5446 40.4562 58.1274 43.1892 54.1676 43.1364C44.708 43.0095 35.2484 43.0967 25.7889 43.0967C25.4152 43.0967 25.0441 43.0967 24.62 43.0967C24.62 45.4676 24.5246 47.7407 24.6863 49.9952C24.7287 50.5873 25.4814 51.2534 26.0698 51.6393C26.5204 51.9353 27.2254 51.9168 27.8191 51.9168C36.3908 51.9327 44.9624 51.9353 53.5314 51.9142C54.3186 51.9142 54.9097 52.1362 55.4769 52.6833C57.8305 54.9458 60.2186 57.174 62.5961 59.41C62.8161 59.6162 63.052 59.8065 63.4416 60.1422L63.4442 60.1395Z" fill="#D29F53"/>
<path d="M45.0552 18.3068C45.8875 18.3068 46.5209 18.291 47.1544 18.3095C49.683 18.3809 51.4429 20.1227 51.5144 22.631C51.5383 23.4847 51.5356 24.3411 51.5171 25.1948C51.4614 27.7692 49.7095 29.5295 47.1438 29.6062C46.8628 29.6141 46.5819 29.6062 46.2108 29.6062C46.187 29.9736 46.1605 30.2775 46.1499 30.5815C46.0624 33.5312 43.8068 35.7752 40.8516 35.8334C39.7728 35.8545 38.6941 35.8386 37.6127 35.8386C36.5684 35.8386 35.5214 35.8386 34.6839 35.8386C34.1882 36.6369 33.9179 37.5223 33.3215 37.9135C32.6695 38.339 31.7233 38.4025 30.8937 38.4501C29.4704 38.5293 28.0391 38.4818 26.6105 38.4685C24.7738 38.4527 23.8487 37.5382 23.8328 35.7356C23.8249 34.9453 23.8143 34.1523 23.8382 33.362C23.8806 31.985 24.7764 30.9938 26.1467 30.9515C28.0816 30.8934 30.0191 30.8987 31.9539 30.9489C33.3613 30.9859 34.1008 31.8105 34.4003 33.5471C36.6373 33.5471 38.8955 33.6845 41.1299 33.5074C43.2529 33.3383 44.109 31.5859 43.8493 29.474C43.8413 29.4132 43.836 29.326 43.7962 29.2943C42.4074 28.2423 42.8156 26.7252 42.7943 25.3428C42.7466 22.4328 42.8447 19.52 42.7202 16.6126C42.4949 11.3819 38.0394 7.06037 32.7809 6.99694C30.4458 6.96787 28.0498 6.92822 25.7862 7.39869C21.4315 8.30264 18.2191 12.4629 18.1396 16.8954C18.0787 20.2178 18.1237 23.5429 18.1157 26.8653C18.1104 28.8265 17.3179 29.6062 15.3327 29.6141C14.7284 29.6141 14.1268 29.6273 13.5225 29.6009C11.2537 29.5031 9.45398 27.7058 9.37447 25.4459C9.34001 24.4653 9.34266 23.4821 9.37447 22.5041C9.44603 20.239 11.2139 18.4522 13.4986 18.3306C14.2222 18.2936 14.9511 18.3253 15.733 18.3253C15.8284 17.2522 15.8549 16.2505 16.0113 15.2673C16.9601 9.28059 22.1842 4.75029 28.2644 4.708C30.5412 4.69214 32.8763 4.58906 35.0868 5.02253C40.8145 6.14586 44.8061 11.0621 45.0473 16.8848C45.0658 17.3183 45.0473 17.7544 45.0473 18.3148L45.0552 18.3068ZM45.1427 20.6275V27.3199C45.9034 27.3199 46.6005 27.3516 47.2896 27.3119C48.3975 27.2485 49.1635 26.482 49.2165 25.3613C49.2615 24.4177 49.2589 23.4662 49.2165 22.5226C49.1688 21.5103 48.5008 20.7359 47.544 20.6407C46.7674 20.5641 45.9776 20.6249 45.1427 20.6249V20.6275ZM15.7807 27.2538V20.6249C14.9405 20.6249 14.1506 20.5641 13.374 20.6407C12.4331 20.7306 11.7493 21.5341 11.6698 22.52C11.638 22.9297 11.6804 23.3446 11.6512 23.7517C11.4074 27.3463 12.8387 27.5366 15.7807 27.2538ZM26.1626 36.1347H31.9936V33.2669H26.1626V36.1347Z" fill="#D29F53"/>
<path d="M32.4708 8.34237C35.5877 8.61726 38.3549 9.94675 40.0644 13.0207C40.5521 13.8982 40.4328 14.5643 39.7967 14.9132C39.1632 15.2621 38.5669 14.9819 38.0686 14.107C36.7407 11.7652 34.615 10.782 32.0281 10.6128C31.3152 10.5652 30.7771 10.3617 30.6897 9.57671C30.5996 8.7732 31.1853 8.30537 32.4681 8.34237H32.4708Z" fill="#D29F53"/>
<path d="M69.2116 30.7376C69.2116 32.4741 69.201 34.2133 69.2169 35.9498C69.2249 36.7375 69.0182 37.348 68.117 37.4115C67.3669 37.4643 66.9349 36.9172 66.9322 35.9287C66.9243 32.453 66.9243 28.9773 66.9322 25.5042C66.9322 24.513 67.3563 23.9791 68.0958 23.9844C68.8379 23.9897 69.209 24.4919 69.2143 25.5254C69.2196 27.2619 69.2143 29.001 69.2143 30.7376H69.2116Z" fill="#D29F53"/>
</svg>
