<svg width="12" height="14" viewBox="0 0 12 14" fill="none" xmlns="http://www.w3.org/2000/svg">
<path d="M3.375 2.33338L6 3.85005L8.625 2.33338M3.375 11.4217V8.39421L0.75 6.87755M11.25 6.87755L8.625 8.39421V11.4217M0.9075 3.93755L6 6.88338L11.0925 3.93755M6 12.7575V6.87755M11.25 9.21088V4.54421C11.2498 4.33962 11.1958 4.13869 11.0934 3.96156C10.991 3.78443 10.8438 3.63734 10.6667 3.53505L6.58333 1.20171C6.40598 1.09932 6.20479 1.04541 6 1.04541C5.79521 1.04541 5.59402 1.09932 5.41667 1.20171L1.33333 3.53505C1.15615 3.63734 1.00899 3.78443 0.906603 3.96156C0.804217 4.13869 0.75021 4.33962 0.75 4.54421V9.21088C0.75021 9.41547 0.804217 9.61641 0.906603 9.79354C1.00899 9.97066 1.15615 10.1178 1.33333 10.22L5.41667 12.5534C5.59402 12.6558 5.79521 12.7097 6 12.7097C6.20479 12.7097 6.40598 12.6558 6.58333 12.5534L10.6667 10.22C10.8438 10.1178 10.991 9.97066 11.0934 9.79354C11.1958 9.61641 11.2498 9.41547 11.25 9.21088Z" stroke="#D29F53" stroke-linecap="round" stroke-linejoin="round"/>
</svg>
