<svg width="25" height="25" viewBox="0 0 25 25" fill="none" xmlns="http://www.w3.org/2000/svg">
<g id="Icons" clip-path="url(#clip0_2722_4602)">
<path id="Icon" d="M1.5 4.50008V10.5001M1.5 10.5001H7.5M1.5 10.5001L6.14 6.14008C7.21475 5.06479 8.54437 4.27928 10.0048 3.85685C11.4652 3.43442 13.0089 3.38883 14.4917 3.72433C15.9745 4.05984 17.3482 4.76551 18.4845 5.77549C19.6209 6.78548 20.4828 8.06686 20.99 9.50008M23.5 20.5001V14.5001M23.5 14.5001H17.5M23.5 14.5001L18.86 18.8601C17.7853 19.9354 16.4556 20.7209 14.9952 21.1433C13.5348 21.5657 11.9911 21.6113 10.5083 21.2758C9.02547 20.9403 7.6518 20.2346 6.51547 19.2247C5.37913 18.2147 4.51717 16.9333 4.01 15.5001" stroke="black" stroke-width="1.5" stroke-linecap="round" stroke-linejoin="round"/>
</g>
<defs>
<clipPath id="clip0_2722_4602">
<rect width="24" height="24" fill="white" transform="translate(0.5 0.5)"/>
</clipPath>
</defs>
</svg>
