<svg width="28" height="60" viewBox="0 0 28 60" fill="none" xmlns="http://www.w3.org/2000/svg">
<g clip-path="url(#clip0_1999_77050)">
<path d="M27.5359 20.4702C27.5359 23.6092 27.5499 26.7483 27.5327 29.8874C27.503 34.9514 24.1718 38.9139 19.1968 39.8264C18.8343 39.8936 18.4609 39.9452 18.0937 39.9436C15.1515 39.9358 12.1999 40.0546 9.27024 39.8639C4.40617 39.5483 0.410862 35.2233 0.373362 30.3436C0.323362 23.9296 0.35305 17.5155 0.357737 11.1014C0.362425 5.60612 4.22805 1.32175 9.71711 0.990499C12.7437 0.807686 15.8031 0.848311 18.8296 1.06081C23.414 1.38425 27.3562 5.58425 27.4921 10.1764C27.5937 13.6046 27.5124 17.0374 27.5124 20.4686C27.5202 20.4686 27.528 20.4686 27.5359 20.4686V20.4702ZM25.5671 20.4592C25.5671 17.3014 25.5921 14.1436 25.5609 10.9858C25.514 6.34362 22.0624 2.93425 17.4202 2.91237C15.0812 2.90144 12.7421 2.89831 10.4046 2.91237C5.81399 2.94206 2.3468 6.40925 2.33742 10.9952C2.32492 17.2905 2.32492 23.5874 2.33742 29.8842C2.3468 34.4967 5.83899 37.9796 10.4452 37.9921C12.7843 37.9983 15.1234 38.003 17.4609 37.9858C18.0218 37.9811 18.5937 37.9358 19.1437 37.8217C22.9968 37.0155 25.5343 33.8811 25.564 29.8749C25.5859 26.7374 25.5687 23.5983 25.5687 20.4592H25.5671Z" fill="#F7F7F7"/>
<path d="M14.9266 56.0593C16.2719 54.8796 17.4844 53.8156 18.6985 52.7515C18.875 52.5968 19.0453 52.4374 19.2328 52.2984C19.7047 51.9468 20.2313 51.989 20.5953 52.3984C20.9516 52.7984 20.9516 53.3702 20.5344 53.7656C19.9125 54.3546 19.2516 54.9031 18.6094 55.4702C17.3094 56.6171 16.011 57.7656 14.7141 58.9156C14.2078 59.364 13.6985 59.3827 13.2032 58.9452C11.3032 57.2718 9.40784 55.5906 7.50628 53.9187C7.10159 53.5624 6.88597 53.1624 7.13284 52.6327C7.43128 51.9921 8.1469 51.8687 8.74378 52.3796C9.8844 53.3531 11.0047 54.3515 12.1344 55.3374C12.3672 55.5406 12.6016 55.7406 12.961 56.0499C12.961 55.7171 12.961 55.5187 12.961 55.3202C12.961 52.0077 12.961 48.6952 12.961 45.3827C12.961 45.1499 12.9485 44.9109 12.9922 44.6843C13.0891 44.1734 13.4422 43.9031 13.9391 43.8999C14.4094 43.8968 14.7625 44.1484 14.8719 44.6281C14.9282 44.8718 14.9219 45.1312 14.9219 45.3827C14.925 48.6765 14.9235 51.9687 14.9235 55.2624C14.9235 55.4718 14.9235 55.6812 14.9235 56.0593H14.9266Z" fill="#F7F7F7"/>
<path d="M12.9625 13.8498C12.9625 13.0904 12.9547 12.3311 12.9641 11.5717C12.9735 10.8529 13.3344 10.4232 13.9172 10.4076C14.5172 10.392 14.9172 10.8404 14.9219 11.5842C14.9328 13.1232 14.9344 14.6607 14.9219 16.1998C14.9156 16.9232 14.5422 17.3232 13.9344 17.3201C13.3313 17.317 12.975 16.9139 12.9657 16.1873C12.9547 15.4092 12.9625 14.6295 12.9625 13.8498Z" fill="#F7F7F7"/>
</g>
<defs>
<clipPath id="clip0_1999_77050">
<rect width="28" height="60" fill="white"/>
</clipPath>
</defs>
</svg>
